<svg height="288pt" viewBox="0 0 432 288" width="432pt" xmlns="http://www.w3.org/2000/svg" xmlns:xlink="http://www.w3.org/1999/xlink"><defs><style>*{stroke-linecap:butt;stroke-linejoin:round}</style></defs><g id="figure_1"><g id="patch_1"><path d="M0 288H432V0H0z" style="fill:#fff"/></g><g id="axes_1"><g id="patch_2"><path d="M54 252H388.8V34.56H54z" style="fill:#fff"/></g><g id="line2d_1"><defs><path d="M0 5C1.326016 5 2.597899 4.473168 3.535534 3.535534 4.473168 2.597899 5 1.326016 5 0 5-1.326016 4.473168-2.597899 3.535534-3.535534 2.597899-4.473168 1.326016-5 0-5-1.326016-5-2.597899-4.473168-3.535534-3.535534-4.473168-2.597899-5-1.326016-5 0-5 1.326016-4.473168 2.597899-3.535534 3.535534-2.597899 4.473168-1.326016 5 0 5z" id="m174c6870ca" style="stroke:#000"/></defs><g clip-path="url(#pe3d7909e4f)"><use style="fill:#00f;stroke:#000" x="69.218182" xlink:href="#m174c6870ca" y="149.953983"/><use style="fill:#00f;stroke:#000" x="128.032995" xlink:href="#m174c6870ca" y="169.901295"/><use style="fill:#00f;stroke:#000" x="121.13534" xlink:href="#m174c6870ca" y="103.699766"/><use style="fill:#00f;stroke:#000" x="87.592854" xlink:href="#m174c6870ca" y="165.527539"/><use style="fill:#00f;stroke:#000" x="76.871004" xlink:href="#m174c6870ca" y="139.289257"/><use style="fill:#00f;stroke:#000" x="97.510432" xlink:href="#m174c6870ca" y="146.504667"/><use style="fill:#00f;stroke:#000" x="136.38771" xlink:href="#m174c6870ca" y="127.100862"/><use style="fill:#00f;stroke:#000" x="132.233576" xlink:href="#m174c6870ca" y="103.415441"/></g></g><g id="line2d_2"><defs><path d="M0 5C1.326016 5 2.597899 4.473168 3.535534 3.535534 4.473168 2.597899 5 1.326016 5 0 5-1.326016 4.473168-2.597899 3.535534-3.535534 2.597899-4.473168 1.326016-5 0-5-1.326016-5-2.597899-4.473168-3.535534-3.535534-4.473168-2.597899-5-1.326016-5 0-5 1.326016-4.473168 2.597899-3.535534 3.535534-2.597899 4.473168-1.326016 5 0 5z" id="m08a39befc4" style="stroke:#000"/></defs><g clip-path="url(#pe3d7909e4f)"><use style="fill:red;stroke:#000" x="288.824836" xlink:href="#m08a39befc4" y="74.678439"/><use style="fill:red;stroke:#000" x="276.283032" xlink:href="#m08a39befc4" y="112.164412"/><use style="fill:red;stroke:#000" x="373.581818" xlink:href="#m08a39befc4" y="130.346053"/><use style="fill:red;stroke:#000" x="258.455859" xlink:href="#m08a39befc4" y="102.274933"/><use style="fill:red;stroke:#000" x="323.638351" xlink:href="#m08a39befc4" y="91.258631"/><use style="fill:red;stroke:#000" x="290.933531" xlink:href="#m08a39befc4" y="73.442588"/><use style="fill:red;stroke:#000" x="345.665631" xlink:href="#m08a39befc4" y="122.898833"/><use style="fill:red;stroke:#000" x="359.205237" xlink:href="#m08a39befc4" y="89.57093"/><use style="fill:red;stroke:#000" x="251.592222" xlink:href="#m08a39befc4" y="89.387979"/><use style="fill:red;stroke:#000" x="369.330137" xlink:href="#m08a39befc4" y="94.752729"/></g></g><g id="line2d_3"><path clip-path="url(#pe3d7909e4f)" d="M130.987983 63.823316 136.377707 90.954866 141.767431 118.086417 147.157154 145.217968 152.546878 172.349519 157.936602 199.48107 163.326326 226.61262" style="fill:none;stroke:#000;stroke-dasharray:5.55,2.4;stroke-dashoffset:0;stroke-width:1.5"/></g><g id="line2d_4"><path clip-path="url(#pe3d7909e4f)" d="M238.78246 44.443636 244.172184 71.575187 249.561908 98.706738 254.951632 125.838289 260.341356 152.96984 265.73108 180.10139 271.120803 207.232941 276.510527 234.364492" style="fill:none;stroke:#000;stroke-dasharray:5.55,2.4;stroke-dashoffset:0;stroke-width:1.5"/></g><g id="line2d_5"><path clip-path="url(#pe3d7909e4f)" d="M184.885222 52.195508 190.274945 79.327059 195.664669 106.45861 201.054393 133.59016 206.444117 160.721711 211.833841 187.853262 217.223565 214.984813 222.613289 242.116364" style="fill:none;stroke:#000;stroke-linecap:square;stroke-width:1.5"/></g><g id="patch_3"><path d="M54 252V34.56" style="fill:none;stroke:#000;stroke-linecap:square;stroke-linejoin:miter;stroke-width:.8"/></g><g id="patch_4"><path d="M388.8 252V34.56" style="fill:none;stroke:#000;stroke-linecap:square;stroke-linejoin:miter;stroke-width:.8"/></g><g id="patch_5"><path d="M54 252H388.8" style="fill:none;stroke:#000;stroke-linecap:square;stroke-linejoin:miter;stroke-width:.8"/></g><g id="patch_6"><path d="M54 34.56H388.8" style="fill:none;stroke:#000;stroke-linecap:square;stroke-linejoin:miter;stroke-width:.8"/></g><g id="text_1"><defs><path d="M3.515625 54.6875h17L29.6875 17l9.234375 37.6875h14.59375l9.1875-37.296875L71.921875 54.6875h17L74.515625.0H55.421875L46.1875 37.59375 37.015625.0H17.921875z" id="DejaVuSans-Bold-77"/><path d="M5.90625 72.90625H67.578125l-1.5625-8.3125H39.984375L27.484375.0h-9.90625l12.5 64.59375H4.296875z" id="DejaVuSans-Oblique-54"/><path d="M22.21875 27.984375 2.484375 54.6875H21L32.171875 38.484375 43.5 54.6875H62.015625L42.28125 28.078125 62.984375.0h-18.5l-12.3125 17.28125L20.015625.0h-18.5z" id="DejaVuSans-Bold-78"/><path d="M46 62.703125V35.5H73.1875V27.203125H46V0H37.796875V27.203125H10.59375V35.5H37.796875V62.703125z" id="DejaVuSans-2b"/><path d="M49.515625 33.40625q0 7.078125-3.25 11.078125-3.25 4-8.953125 4-4.15625.0-7.796875-2.03125Q25.875 44.4375 23.1875 40.578125q-2.828125-4.046875-4.46875-9.40625-1.625-5.34375-1.625-10.65625.0-6.75 3.1875-10.578125 3.203125-3.828125 8.828125-3.828125 4.234375.0 7.84375 1.96875 3.625 1.984375 6.359375 5.84375 2.78125 4 4.484375 9.3125 1.71875 5.328125 1.71875 10.171875zm-27.9375 12.984375Q24.90625 50.875 29.90625 53.4375 34.90625 56 40.375 56q8.40625.0 13.359375-5.671875 4.953125-5.65625 4.953125-15.3125.0-7.921875-2.90625-15.34375Q52.875 12.25 47.515625 6.5 44 2.6875 39.40625.625q-4.59375-2.046875-9.625-2.046875-5.3125.0-9.21875 2.4375-3.90625 2.453125-6.359375 7.28125L12.59375.0H3.609375L18.40625 75.984375h8.984375z" id="DejaVuSans-Oblique-62"/><path d="M10.59375 45.40625H73.1875V37.203125H10.59375zm0-19.921875H73.1875V17.1875H10.59375z" id="DejaVuSans-3d"/><path d="M31.78125 66.40625q-7.609375.0-11.453125-7.5Q16.5 51.421875 16.5 36.375q0-14.984375 3.828125-22.484375 3.84375-7.5 11.453125-7.5 7.671875.0 11.5 7.5 3.84375 7.5 3.84375 22.484375.0 15.046875-3.84375 22.53125-3.828125 7.5-11.5 7.5zm0 7.8125q12.265625.0 18.734375-9.703125 6.46875-9.6875 6.46875-28.140625.0-18.40625-6.46875-28.109375-6.46875-9.6875-18.734375-9.6875-12.25.0-18.71875 9.6875Q6.59375 17.96875 6.59375 36.375q0 18.453125 6.46875 28.140625 6.46875 9.703125 18.71875 9.703125z" id="DejaVuSans-30"/></defs><g transform="translate(228.003013 245.992299)scale(0.1 -0.1)"><use transform="translate(0 0.684375)" xlink:href="#DejaVuSans-Bold-77"/><use transform="translate(93.339844 38.965625)scale(0.7)" xlink:href="#DejaVuSans-Oblique-54"/><use transform="translate(138.833008 0.684375)" xlink:href="#DejaVuSans-Bold-78"/><use transform="translate(222.817383 0.684375)" xlink:href="#DejaVuSans-2b"/><use transform="translate(326.088867 0.684375)" xlink:href="#DejaVuSans-Oblique-62"/><use transform="translate(409.047852 0.684375)" xlink:href="#DejaVuSans-3d"/><use transform="translate(512.319336 0.684375)" xlink:href="#DejaVuSans-30"/></g></g><g id="patch_7"><path d="M269.674797 195.730862Q216.145527 206.124442 162.616257 216.518021" style="fill:none;stroke:red;stroke-linecap:round"/><path d="M265.366918 194.529955 269.674797 195.730862 266.129344 198.456621" style="fill:none;stroke:red;stroke-linecap:round"/><path d="M166.924136 217.718928 162.616257 216.518021 166.161709 213.792262" style="fill:none;stroke:red;stroke-linecap:round"/></g></g></g><defs><clipPath id="pe3d7909e4f"><path d="M54 34.56h334.8V252H54z"/></clipPath></defs></svg>