<svg height="288pt" viewBox="0 0 432 288" width="432pt" xmlns="http://www.w3.org/2000/svg" xmlns:xlink="http://www.w3.org/1999/xlink"><defs><style>*{stroke-linecap:butt;stroke-linejoin:round}</style></defs><g id="figure_1"><g id="patch_1"><path d="M0 288H432V0H0z" style="fill:#fff"/></g><g id="axes_1"><g id="patch_2"><path d="M54 252H388.8V34.56H54z" style="fill:#fff"/></g><g id="matplotlib.axis_1"><g id="xtick_1"><g id="line2d_1"><defs><path d="M0 0V3.5" id="mb067f2561a" style="stroke:#000;stroke-width:.8"/></defs><use style="stroke:#000;stroke-width:.8" x="87.291738" xlink:href="#mb067f2561a" y="252"/></g><g id="text_1"><defs><path d="M12.40625 8.296875H28.515625v55.625L10.984375 60.40625v8.984375l17.4375 3.515625H38.28125V8.296875H54.390625V0H12.40625z" id="DejaVuSans-31"/><path d="M10.6875 12.40625H21V0H10.6875z" id="DejaVuSans-2e"/><path d="M10.796875 72.90625h38.71875v-8.3125h-29.6875V46.734375q2.140625.734375 4.28125 1.09375 2.15625.359375 4.3125.359375Q40.625 48.1875 47.75 41.5q7.140625-6.6875 7.140625-18.109375.0-11.765625-7.328125-18.296875-7.328125-6.515625-20.65625-6.515625-4.59375.0-9.359375.78125-4.75.78125-9.828125 2.34375V11.625q4.390625-2.390625 9.078125-3.5625 4.6875-1.171875 9.90625-1.171875 8.453125.0 13.375 4.4375 4.9375 4.4375 4.9375 12.0625.0 7.609375-4.9375 12.046875-4.921875 4.453125-13.375 4.453125-3.953125.0-7.890625-.875-3.921875-.875-8.015625-2.734375z" id="DejaVuSans-35"/></defs><g transform="translate(79.340176 266.598437)scale(0.1 -0.1)"><use xlink:href="#DejaVuSans-31"/><use x="63.623047" xlink:href="#DejaVuSans-2e"/><use x="95.410156" xlink:href="#DejaVuSans-35"/></g></g></g><g id="xtick_2"><g id="line2d_2"><use style="stroke:#000;stroke-width:.8" x="131.161941" xlink:href="#mb067f2561a" y="252"/></g><g id="text_2"><defs><path d="M19.1875 8.296875H53.609375V0H7.328125V8.296875Q12.9375 14.109375 22.625 23.890625 32.328125 33.6875 34.8125 36.53125q4.734375 5.3125 6.609375 9 1.890625 3.6875 1.890625 7.25.0 5.8125-4.078125 9.46875-4.078125 3.671875-10.625 3.671875-4.640625.0-9.796875-1.609375-5.140625-1.609375-11-4.890625v9.96875Q13.765625 71.78125 18.9375 73q5.1875 1.21875 9.484375 1.21875 11.328125.0 18.0625-5.671875 6.734375-5.65625 6.734375-15.125.0-4.5-1.6875-8.53125-1.671875-4.015625-6.125-9.484375-1.21875-1.421875-7.765625-8.1875Q31.109375 20.453125 19.1875 8.296875z" id="DejaVuSans-32"/><path d="M31.78125 66.40625q-7.609375.0-11.453125-7.5Q16.5 51.421875 16.5 36.375q0-14.984375 3.828125-22.484375 3.84375-7.5 11.453125-7.5 7.671875.0 11.5 7.5 3.84375 7.5 3.84375 22.484375.0 15.046875-3.84375 22.53125-3.828125 7.5-11.5 7.5zm0 7.8125q12.265625.0 18.734375-9.703125 6.46875-9.6875 6.46875-28.140625.0-18.40625-6.46875-28.109375-6.46875-9.6875-18.734375-9.6875-12.25.0-18.71875 9.6875Q6.59375 17.96875 6.59375 36.375q0 18.453125 6.46875 28.140625 6.46875 9.703125 18.71875 9.703125z" id="DejaVuSans-30"/></defs><g transform="translate(123.210379 266.598437)scale(0.1 -0.1)"><use xlink:href="#DejaVuSans-32"/><use x="63.623047" xlink:href="#DejaVuSans-2e"/><use x="95.410156" xlink:href="#DejaVuSans-30"/></g></g></g><g id="xtick_3"><g id="line2d_3"><use style="stroke:#000;stroke-width:.8" x="175.032144" xlink:href="#mb067f2561a" y="252"/></g><g id="text_3"><g transform="translate(167.080582 266.598437)scale(0.1 -0.1)"><use xlink:href="#DejaVuSans-32"/><use x="63.623047" xlink:href="#DejaVuSans-2e"/><use x="95.410156" xlink:href="#DejaVuSans-35"/></g></g></g><g id="xtick_4"><g id="line2d_4"><use style="stroke:#000;stroke-width:.8" x="218.902347" xlink:href="#mb067f2561a" y="252"/></g><g id="text_4"><defs><path d="M40.578125 39.3125Q47.65625 37.796875 51.625 33q3.984375-4.78125 3.984375-11.8125.0-10.78125-7.421875-16.703125-7.421875-5.90625-21.09375-5.90625-4.578125.0-9.4375.90625Q12.796875.390625 7.625 2.203125V11.71875q4.09375-2.390625 8.96875-3.609375 4.890625-1.21875 10.21875-1.21875 9.265625.0 14.125 3.65625 4.859375 3.65625 4.859375 10.640625.0 6.453125-4.515625 10.078125-4.515625 3.640625-12.5625 3.640625h-8.5v8.109375h8.890625q7.265625.0 11.125 2.90625 3.859375 2.90625 3.859375 8.375.0 5.609375-3.984375 8.609375-3.96875 3.015625-11.390625 3.015625-4.0625.0-8.703125-.890625Q15.375 64.15625 9.8125 62.3125v8.78125q5.625 1.5625 10.53125 2.34375 4.90625.78125 9.25.78125 11.234375.0 17.765625-5.109375 6.546875-5.09375 6.546875-13.78125.0-6.0625-3.46875-10.234375-3.46875-4.171875-9.859375-5.78125z" id="DejaVuSans-33"/></defs><g transform="translate(210.950785 266.598437)scale(0.1 -0.1)"><use xlink:href="#DejaVuSans-33"/><use x="63.623047" xlink:href="#DejaVuSans-2e"/><use x="95.410156" xlink:href="#DejaVuSans-30"/></g></g></g><g id="xtick_5"><g id="line2d_5"><use style="stroke:#000;stroke-width:.8" x="262.77255" xlink:href="#mb067f2561a" y="252"/></g><g id="text_5"><g transform="translate(254.820988 266.598437)scale(0.1 -0.1)"><use xlink:href="#DejaVuSans-33"/><use x="63.623047" xlink:href="#DejaVuSans-2e"/><use x="95.410156" xlink:href="#DejaVuSans-35"/></g></g></g><g id="xtick_6"><g id="line2d_6"><use style="stroke:#000;stroke-width:.8" x="306.642754" xlink:href="#mb067f2561a" y="252"/></g><g id="text_6"><defs><path d="M37.796875 64.3125 12.890625 25.390625h24.90625zm-2.59375 8.59375h12.40625V25.390625h10.40625V17.1875H47.609375V0h-9.8125V17.1875H4.890625v9.515625z" id="DejaVuSans-34"/></defs><g transform="translate(298.691191 266.598437)scale(0.1 -0.1)"><use xlink:href="#DejaVuSans-34"/><use x="63.623047" xlink:href="#DejaVuSans-2e"/><use x="95.410156" xlink:href="#DejaVuSans-30"/></g></g></g><g id="xtick_7"><g id="line2d_7"><use style="stroke:#000;stroke-width:.8" x="350.512957" xlink:href="#mb067f2561a" y="252"/></g><g id="text_7"><g transform="translate(342.561394 266.598437)scale(0.1 -0.1)"><use xlink:href="#DejaVuSans-34"/><use x="63.623047" xlink:href="#DejaVuSans-2e"/><use x="95.410156" xlink:href="#DejaVuSans-35"/></g></g></g></g><g id="matplotlib.axis_2"><g id="ytick_1"><g id="line2d_8"><defs><path d="M0 0H-3.5" id="m8831e9ffad" style="stroke:#000;stroke-width:.8"/></defs><use style="stroke:#000;stroke-width:.8" x="54" xlink:href="#m8831e9ffad" y="223.536833"/></g><g id="text_8"><g transform="translate(31.096875 227.336051)scale(0.1 -0.1)"><use xlink:href="#DejaVuSans-30"/><use x="63.623047" xlink:href="#DejaVuSans-2e"/><use x="95.410156" xlink:href="#DejaVuSans-35"/></g></g></g><g id="ytick_2"><g id="line2d_9"><use style="stroke:#000;stroke-width:.8" x="54" xlink:href="#m8831e9ffad" y="188.043321"/></g><g id="text_9"><g transform="translate(31.096875 191.842539)scale(0.1 -0.1)"><use xlink:href="#DejaVuSans-31"/><use x="63.623047" xlink:href="#DejaVuSans-2e"/><use x="95.410156" xlink:href="#DejaVuSans-30"/></g></g></g><g id="ytick_3"><g id="line2d_10"><use style="stroke:#000;stroke-width:.8" x="54" xlink:href="#m8831e9ffad" y="152.549809"/></g><g id="text_10"><g transform="translate(31.096875 156.349027)scale(0.1 -0.1)"><use xlink:href="#DejaVuSans-31"/><use x="63.623047" xlink:href="#DejaVuSans-2e"/><use x="95.410156" xlink:href="#DejaVuSans-35"/></g></g></g><g id="ytick_4"><g id="line2d_11"><use style="stroke:#000;stroke-width:.8" x="54" xlink:href="#m8831e9ffad" y="117.056297"/></g><g id="text_11"><g transform="translate(31.096875 120.855516)scale(0.1 -0.1)"><use xlink:href="#DejaVuSans-32"/><use x="63.623047" xlink:href="#DejaVuSans-2e"/><use x="95.410156" xlink:href="#DejaVuSans-30"/></g></g></g><g id="ytick_5"><g id="line2d_12"><use style="stroke:#000;stroke-width:.8" x="54" xlink:href="#m8831e9ffad" y="81.562785"/></g><g id="text_12"><g transform="translate(31.096875 85.362004)scale(0.1 -0.1)"><use xlink:href="#DejaVuSans-32"/><use x="63.623047" xlink:href="#DejaVuSans-2e"/><use x="95.410156" xlink:href="#DejaVuSans-35"/></g></g></g><g id="ytick_6"><g id="line2d_13"><use style="stroke:#000;stroke-width:.8" x="54" xlink:href="#m8831e9ffad" y="46.069273"/></g><g id="text_13"><g transform="translate(31.096875 49.868492)scale(0.1 -0.1)"><use xlink:href="#DejaVuSans-33"/><use x="63.623047" xlink:href="#DejaVuSans-2e"/><use x="95.410156" xlink:href="#DejaVuSans-30"/></g></g></g></g><g id="line2d_14"><defs><path d="M0 5C1.326016 5 2.597899 4.473168 3.535534 3.535534 4.473168 2.597899 5 1.326016 5 0 5-1.326016 4.473168-2.597899 3.535534-3.535534 2.597899-4.473168 1.326016-5 0-5-1.326016-5-2.597899-4.473168-3.535534-3.535534-4.473168-2.597899-5-1.326016-5 0-5 1.326016-4.473168 2.597899-3.535534 3.535534-2.597899 4.473168-1.326016 5 0 5z" id="m5f09298c22" style="stroke:#000"/></defs><g clip-path="url(#pb7c5a277c9)"><use style="fill:#00f;stroke:#000" x="144.140105" xlink:href="#m5f09298c22" y="58.050781"/><use style="fill:#00f;stroke:#000" x="154.916288" xlink:href="#m5f09298c22" y="82.899111"/><use style="fill:#00f;stroke:#000" x="128.623563" xlink:href="#m5f09298c22" y="109.465662"/><use style="fill:#00f;stroke:#000" x="158.714559" xlink:href="#m5f09298c22" y="44.443636"/><use style="fill:#00f;stroke:#000" x="148.314099" xlink:href="#m5f09298c22" y="138.317851"/><use style="fill:#00f;stroke:#000" x="75.422094" xlink:href="#m5f09298c22" y="158.740364"/><use style="fill:#00f;stroke:#000" x="172.334291" xlink:href="#m5f09298c22" y="108.354918"/><use style="fill:#00f;stroke:#000" x="69.218182" xlink:href="#m5f09298c22" y="143.032893"/></g></g><g id="line2d_15"><defs><path d="M0 5C1.326016 5 2.597899 4.473168 3.535534 3.535534 4.473168 2.597899 5 1.326016 5 0 5-1.326016 4.473168-2.597899 3.535534-3.535534 2.597899-4.473168 1.326016-5 0-5-1.326016-5-2.597899-4.473168-3.535534-3.535534-4.473168-2.597899-5-1.326016-5 0-5 1.326016-4.473168 2.597899-3.535534 3.535534-2.597899 4.473168-1.326016 5 0 5z" id="m2357ba4b02" style="stroke:#000"/></defs><g clip-path="url(#pb7c5a277c9)"><use style="fill:red;stroke:#000" x="305.787057" xlink:href="#m2357ba4b02" y="171.64442"/><use style="fill:red;stroke:#000" x="359.058462" xlink:href="#m2357ba4b02" y="115.864846"/><use style="fill:red;stroke:#000" x="316.010734" xlink:href="#m2357ba4b02" y="195.304844"/><use style="fill:red;stroke:#000" x="300.13309" xlink:href="#m2357ba4b02" y="159.516578"/><use style="fill:red;stroke:#000" x="373.581818" xlink:href="#m2357ba4b02" y="82.555388"/><use style="fill:red;stroke:#000" x="271.24355" xlink:href="#m2357ba4b02" y="237.786865"/><use style="fill:red;stroke:#000" x="306.532184" xlink:href="#m2357ba4b02" y="242.116364"/><use style="fill:red;stroke:#000" x="369.839608" xlink:href="#m2357ba4b02" y="178.680352"/><use style="fill:red;stroke:#000" x="299.598418" xlink:href="#m2357ba4b02" y="226.910505"/><use style="fill:red;stroke:#000" x="346.794485" xlink:href="#m2357ba4b02" y="182.630194"/></g></g><g id="patch_3"><path d="M54 252V34.56" style="fill:none;stroke:#000;stroke-linecap:square;stroke-linejoin:miter;stroke-width:.8"/></g><g id="patch_4"><path d="M388.8 252V34.56" style="fill:none;stroke:#000;stroke-linecap:square;stroke-linejoin:miter;stroke-width:.8"/></g><g id="patch_5"><path d="M54 252H388.8" style="fill:none;stroke:#000;stroke-linecap:square;stroke-linejoin:miter;stroke-width:.8"/></g><g id="patch_6"><path d="M54 34.56H388.8" style="fill:none;stroke:#000;stroke-linecap:square;stroke-linejoin:miter;stroke-width:.8"/></g></g></g><defs><clipPath id="pb7c5a277c9"><path d="M54 34.56h334.8V252H54z"/></clipPath></defs></svg>