<svg height="288pt" viewBox="0 0 432 288" width="432pt" xmlns="http://www.w3.org/2000/svg" xmlns:xlink="http://www.w3.org/1999/xlink"><defs><style>*{stroke-linecap:butt;stroke-linejoin:round}</style></defs><g id="figure_1"><g id="patch_1"><path d="M0 288H432V0H0z" style="fill:#fff"/></g><g id="axes_1"><g id="patch_2"><path d="M54 252H388.8V34.56H54z" style="fill:#fff"/></g><g id="line2d_1"><defs><path d="M0 5C1.326016 5 2.597899 4.473168 3.535534 3.535534 4.473168 2.597899 5 1.326016 5 0 5-1.326016 4.473168-2.597899 3.535534-3.535534 2.597899-4.473168 1.326016-5 0-5-1.326016-5-2.597899-4.473168-3.535534-3.535534-4.473168-2.597899-5-1.326016-5 0-5 1.326016-4.473168 2.597899-3.535534 3.535534-2.597899 4.473168-1.326016 5 0 5z" id="m673cb94739" style="stroke:#000"/></defs><g clip-path="url(#p2d264d198c)"><use style="fill:#00f;stroke:#000" x="69.218182" xlink:href="#m673cb94739" y="149.953983"/><use style="fill:#00f;stroke:#000" x="128.032995" xlink:href="#m673cb94739" y="169.901295"/><use style="fill:#00f;stroke:#000" x="121.13534" xlink:href="#m673cb94739" y="103.699766"/><use style="fill:#00f;stroke:#000" x="87.592854" xlink:href="#m673cb94739" y="165.527539"/><use style="fill:#00f;stroke:#000" x="76.871004" xlink:href="#m673cb94739" y="139.289257"/><use style="fill:#00f;stroke:#000" x="97.510432" xlink:href="#m673cb94739" y="146.504667"/><use style="fill:#00f;stroke:#000" x="136.38771" xlink:href="#m673cb94739" y="127.100862"/><use style="fill:#00f;stroke:#000" x="132.233576" xlink:href="#m673cb94739" y="103.415441"/></g></g><g id="line2d_2"><defs><path d="M0 5C1.326016 5 2.597899 4.473168 3.535534 3.535534 4.473168 2.597899 5 1.326016 5 0 5-1.326016 4.473168-2.597899 3.535534-3.535534 2.597899-4.473168 1.326016-5 0-5-1.326016-5-2.597899-4.473168-3.535534-3.535534-4.473168-2.597899-5-1.326016-5 0-5 1.326016-4.473168 2.597899-3.535534 3.535534-2.597899 4.473168-1.326016 5 0 5z" id="m7d19b4caef" style="stroke:#000"/></defs><g clip-path="url(#p2d264d198c)"><use style="fill:red;stroke:#000" x="288.824836" xlink:href="#m7d19b4caef" y="74.678439"/><use style="fill:red;stroke:#000" x="276.283032" xlink:href="#m7d19b4caef" y="112.164412"/><use style="fill:red;stroke:#000" x="373.581818" xlink:href="#m7d19b4caef" y="130.346053"/><use style="fill:red;stroke:#000" x="258.455859" xlink:href="#m7d19b4caef" y="102.274933"/><use style="fill:red;stroke:#000" x="323.638351" xlink:href="#m7d19b4caef" y="91.258631"/><use style="fill:red;stroke:#000" x="290.933531" xlink:href="#m7d19b4caef" y="73.442588"/><use style="fill:red;stroke:#000" x="345.665631" xlink:href="#m7d19b4caef" y="122.898833"/><use style="fill:red;stroke:#000" x="359.205237" xlink:href="#m7d19b4caef" y="89.57093"/><use style="fill:red;stroke:#000" x="251.592222" xlink:href="#m7d19b4caef" y="89.387979"/><use style="fill:red;stroke:#000" x="369.330137" xlink:href="#m7d19b4caef" y="94.752729"/></g></g><g id="line2d_3"><path clip-path="url(#p2d264d198c)" d="M130.987983 63.823316 136.377707 90.954866 141.767431 118.086417 147.157154 145.217968 152.546878 172.349519 157.936602 199.48107 163.326326 226.61262" style="fill:none;stroke:#000;stroke-dasharray:5.55,2.4;stroke-dashoffset:0;stroke-width:1.5"/></g><g id="line2d_4"><path clip-path="url(#p2d264d198c)" d="M238.78246 44.443636 244.172184 71.575187 249.561908 98.706738 254.951632 125.838289 260.341356 152.96984 265.73108 180.10139 271.120803 207.232941 276.510527 234.364492" style="fill:none;stroke:#000;stroke-dasharray:5.55,2.4;stroke-dashoffset:0;stroke-width:1.5"/></g><g id="line2d_5"><path clip-path="url(#p2d264d198c)" d="M184.885222 52.195508 190.274945 79.327059 195.664669 106.45861 201.054393 133.59016 206.444117 160.721711 211.833841 187.853262 217.223565 214.984813 222.613289 242.116364" style="fill:none;stroke:#000;stroke-linecap:square;stroke-width:1.5"/></g><g id="line2d_6"><g clip-path="url(#p2d264d198c)"><use style="fill:red;stroke:#000" x="125.598259" xlink:href="#m7d19b4caef" y="191.729198"/></g></g><g id="line2d_7"><g clip-path="url(#p2d264d198c)"><use style="fill:#00f;stroke:#000" x="260.341356" xlink:href="#m673cb94739" y="56.071444"/></g></g><g id="patch_3"><path d="M54 252V34.56" style="fill:none;stroke:#000;stroke-linecap:square;stroke-linejoin:miter;stroke-width:.8"/></g><g id="patch_4"><path d="M388.8 252V34.56" style="fill:none;stroke:#000;stroke-linecap:square;stroke-linejoin:miter;stroke-width:.8"/></g><g id="patch_5"><path d="M54 252H388.8" style="fill:none;stroke:#000;stroke-linecap:square;stroke-linejoin:miter;stroke-width:.8"/></g><g id="patch_6"><path d="M54 34.56H388.8" style="fill:none;stroke:#000;stroke-linecap:square;stroke-linejoin:miter;stroke-width:.8"/></g><g id="text_1"><defs><path d="M3.515625 54.6875h17L29.6875 17l9.234375 37.6875h14.59375l9.1875-37.296875L71.921875 54.6875h17L74.515625.0H55.421875L46.1875 37.59375 37.015625.0H17.921875z" id="DejaVuSans-Bold-77"/><path d="M5.90625 72.90625H67.578125l-1.5625-8.3125H39.984375L27.484375.0h-9.90625l12.5 64.59375H4.296875z" id="DejaVuSans-Oblique-54"/><path d="M22.21875 27.984375 2.484375 54.6875H21L32.171875 38.484375 43.5 54.6875H62.015625L42.28125 28.078125 62.984375.0h-18.5l-12.3125 17.28125L20.015625.0h-18.5z" id="DejaVuSans-Bold-78"/><path d="M46 62.703125V35.5H73.1875V27.203125H46V0H37.796875V27.203125H10.59375V35.5H37.796875V62.703125z" id="DejaVuSans-2b"/><path d="M49.515625 33.40625q0 7.078125-3.25 11.078125-3.25 4-8.953125 4-4.15625.0-7.796875-2.03125Q25.875 44.4375 23.1875 40.578125q-2.828125-4.046875-4.46875-9.40625-1.625-5.34375-1.625-10.65625.0-6.75 3.1875-10.578125 3.203125-3.828125 8.828125-3.828125 4.234375.0 7.84375 1.96875 3.625 1.984375 6.359375 5.84375 2.78125 4 4.484375 9.3125 1.71875 5.328125 1.71875 10.171875zm-27.9375 12.984375Q24.90625 50.875 29.90625 53.4375 34.90625 56 40.375 56q8.40625.0 13.359375-5.671875 4.953125-5.65625 4.953125-15.3125.0-7.921875-2.90625-15.34375Q52.875 12.25 47.515625 6.5 44 2.6875 39.40625.625q-4.59375-2.046875-9.625-2.046875-5.3125.0-9.21875 2.4375-3.90625 2.453125-6.359375 7.28125L12.59375.0H3.609375L18.40625 75.984375h8.984375z" id="DejaVuSans-Oblique-62"/><path d="M10.59375 45.40625H73.1875V37.203125H10.59375zm0-19.921875H73.1875V17.1875H10.59375z" id="DejaVuSans-3d"/><path d="M10.59375 35.5H73.1875V27.203125H10.59375z" id="DejaVuSans-2212"/><path d="M12.40625 8.296875H28.515625v55.625L10.984375 60.40625v8.984375l17.4375 3.515625H38.28125V8.296875H54.390625V0H12.40625z" id="DejaVuSans-31"/></defs><g transform="translate(125.598259 238.240428)scale(0.1 -0.1)"><use transform="translate(0 0.684375)" xlink:href="#DejaVuSans-Bold-77"/><use transform="translate(93.339844 38.965625)scale(0.7)" xlink:href="#DejaVuSans-Oblique-54"/><use transform="translate(138.833008 0.684375)" xlink:href="#DejaVuSans-Bold-78"/><use transform="translate(222.817383 0.684375)" xlink:href="#DejaVuSans-2b"/><use transform="translate(326.088867 0.684375)" xlink:href="#DejaVuSans-Oblique-62"/><use transform="translate(409.047852 0.684375)" xlink:href="#DejaVuSans-3d"/><use transform="translate(531.801758 0.684375)" xlink:href="#DejaVuSans-2212"/><use transform="translate(635.073242 0.684375)" xlink:href="#DejaVuSans-31"/></g></g><g id="text_2"><g transform="translate(281.900251 230.488556)scale(0.1 -0.1)"><use transform="translate(0 0.684375)" xlink:href="#DejaVuSans-Bold-77"/><use transform="translate(93.339844 38.965625)scale(0.7)" xlink:href="#DejaVuSans-Oblique-54"/><use transform="translate(138.833008 0.684375)" xlink:href="#DejaVuSans-Bold-78"/><use transform="translate(222.817383 0.684375)" xlink:href="#DejaVuSans-2b"/><use transform="translate(326.088867 0.684375)" xlink:href="#DejaVuSans-Oblique-62"/><use transform="translate(409.047852 0.684375)" xlink:href="#DejaVuSans-3d"/><use transform="translate(512.319336 0.684375)" xlink:href="#DejaVuSans-31"/></g></g><g id="text_3"><defs><path d="M31.78125 66.40625q-7.609375.0-11.453125-7.5Q16.5 51.421875 16.5 36.375q0-14.984375 3.828125-22.484375 3.84375-7.5 11.453125-7.5 7.671875.0 11.5 7.5 3.84375 7.5 3.84375 22.484375.0 15.046875-3.84375 22.53125-3.828125 7.5-11.5 7.5zm0 7.8125q12.265625.0 18.734375-9.703125 6.46875-9.6875 6.46875-28.140625.0-18.40625-6.46875-28.109375-6.46875-9.6875-18.734375-9.6875-12.25.0-18.71875 9.6875Q6.59375 17.96875 6.59375 36.375q0 18.453125 6.46875 28.140625 6.46875 9.703125 18.71875 9.703125z" id="DejaVuSans-30"/></defs><g transform="translate(228.003013 245.992299)scale(0.1 -0.1)"><use transform="translate(0 0.684375)" xlink:href="#DejaVuSans-Bold-77"/><use transform="translate(93.339844 38.965625)scale(0.7)" xlink:href="#DejaVuSans-Oblique-54"/><use transform="translate(138.833008 0.684375)" xlink:href="#DejaVuSans-Bold-78"/><use transform="translate(222.817383 0.684375)" xlink:href="#DejaVuSans-2b"/><use transform="translate(326.088867 0.684375)" xlink:href="#DejaVuSans-Oblique-62"/><use transform="translate(409.047852 0.684375)" xlink:href="#DejaVuSans-3d"/><use transform="translate(512.319336 0.684375)" xlink:href="#DejaVuSans-30"/></g></g><g id="patch_7"><path d="M268.058718 196.04465Q215.336589 206.28151 162.614459 216.51837" style="fill:none;stroke:#000;stroke-linecap:round"/><path d="M263.750839 194.843743 268.058718 196.04465 264.513266 198.770409" style="fill:none;stroke:#000;stroke-linecap:round"/><path d="M166.922339 217.719277 162.614459 216.51837 166.159912 213.792611" style="fill:none;stroke:#000;stroke-linecap:round"/></g><g id="patch_8"><path d="M262.27541 167.35583Q196.817444 179.263606 131.359479 191.171382" style="fill:none;stroke:red;stroke-linecap:round"/><path d="M257.982042 166.104033 262.27541 167.35583 258.697952 170.039446" style="fill:none;stroke:red;stroke-linecap:round"/><path d="M135.652847 192.423178 131.359479 191.171382 134.936937 188.487765" style="fill:none;stroke:red;stroke-linecap:round"/></g><g id="text_4"><defs><path d="M31.5 6.203125q6.4375-.046875 9.5625-3.71875 3.375-3.859375 2.25-9.71875Q42.1875-12.84375 37.84375-16.75 33.109375-21 25.140625-21 25.875-17.328125 26.5625-13.625q3.328125-.25 5.8125 1.90625 1.90625 1.703125 2.25 3.515625.484375 2.59375-.640625 4.734375Q32.8125-1.421875 30.03125-1.421875q-30.421875.0-26.265625 21.34375Q6.59375 34.578125 23.6875 38.875q-13.328125 1.75-10.84375 14.453125Q14.703125 62.9375 26.21875 66.9375H16.0625l1.765625 9.046875H56.34375l-1.75-9.046875q-30.71875.0-33.5-14.203125-1.8125-9.328125 23.921875-9.765625L43.40625 34.671875Q15.765625 35.75 12.796875 19.921875 10.296875 6.6875 31.5 6.203125z" id="DejaVuSans-Oblique-3be"/><path d="M18.3125 75.984375h8.984375L25.09375 64.59375H16.109375zM14.203125 54.6875H23.1875L12.5.0H3.515625z" id="DejaVuSans-Oblique-69"/></defs><g transform="translate(267.347997 168.473583)scale(0.1 -0.1)"><use transform="translate(0 0.015625)" xlink:href="#DejaVuSans-Oblique-3be"/><use transform="translate(55.761719 -16.390625)scale(0.7)" xlink:href="#DejaVuSans-Oblique-69"/></g></g><g id="patch_9"><path d="M135.763142 79.24918Q195.174206 67.951378 254.58527 56.653576" style="fill:none;stroke:#00f;stroke-linecap:round"/><path d="M140.066353 80.466709 135.763142 79.24918 139.319091 76.537129" style="fill:none;stroke:#00f;stroke-linecap:round"/><path d="M250.282059 55.436048 254.58527 56.653576 251.02932 59.365628" style="fill:none;stroke:#00f;stroke-linecap:round"/></g><g id="text_5"><defs><path d="M14.5 54.6875h8.984375L12.703125-.984375l-.0625-.234375Q10.84375-10.546875 8.5-14.015625 6.296875-17.28125 2.0625-19.03125q-4.21875-1.765625-9.96875-1.765625h-3.375L-9.8125-13.1875h2.296875q5.265625.0 7.5 2.203125 2.21875 2.1875 3.734375 10zm4.203125 21.296875H27.6875L25.484375 64.59375H16.5z" id="DejaVuSans-Oblique-6a"/></defs><g transform="translate(122.903397 83.202995)scale(0.1 -0.1)"><use transform="translate(0 0.015625)" xlink:href="#DejaVuSans-Oblique-3be"/><use transform="translate(55.761719 -16.390625)scale(0.7)" xlink:href="#DejaVuSans-Oblique-6a"/></g></g></g></g><defs><clipPath id="p2d264d198c"><path d="M54 34.56h334.8V252H54z"/></clipPath></defs></svg>