<svg height="288pt" viewBox="0 0 432 288" width="432pt" xmlns="http://www.w3.org/2000/svg" xmlns:xlink="http://www.w3.org/1999/xlink"><defs><style>*{stroke-linecap:butt;stroke-linejoin:round}</style></defs><g id="figure_1"><g id="patch_1"><path d="M0 288H432V0H0z" style="fill:#fff"/></g><g id="axes_1"><g id="patch_2"><path d="M54 252H388.8V34.56H54z" style="fill:#fff"/></g><g id="line2d_1"><defs><path d="M0 5C1.326016 5 2.597899 4.473168 3.535534 3.535534 4.473168 2.597899 5 1.326016 5 0 5-1.326016 4.473168-2.597899 3.535534-3.535534 2.597899-4.473168 1.326016-5 0-5-1.326016-5-2.597899-4.473168-3.535534-3.535534-4.473168-2.597899-5-1.326016-5 0-5 1.326016-4.473168 2.597899-3.535534 3.535534-2.597899 4.473168-1.326016 5 0 5z" id="m98291b5837" style="stroke:#000"/></defs><g clip-path="url(#p2bce433323)"><use style="fill:#00f;stroke:#000" x="69.218182" xlink:href="#m98291b5837" y="149.953983"/><use style="fill:#00f;stroke:#000" x="128.032995" xlink:href="#m98291b5837" y="169.901295"/><use style="fill:#00f;stroke:#000" x="121.13534" xlink:href="#m98291b5837" y="103.699766"/><use style="fill:#00f;stroke:#000" x="87.592854" xlink:href="#m98291b5837" y="165.527539"/><use style="fill:#00f;stroke:#000" x="76.871004" xlink:href="#m98291b5837" y="139.289257"/><use style="fill:#00f;stroke:#000" x="97.510432" xlink:href="#m98291b5837" y="146.504667"/><use style="fill:#00f;stroke:#000" x="136.38771" xlink:href="#m98291b5837" y="127.100862"/><use style="fill:#00f;stroke:#000" x="132.233576" xlink:href="#m98291b5837" y="103.415441"/></g></g><g id="line2d_2"><defs><path d="M0 5C1.326016 5 2.597899 4.473168 3.535534 3.535534 4.473168 2.597899 5 1.326016 5 0 5-1.326016 4.473168-2.597899 3.535534-3.535534 2.597899-4.473168 1.326016-5 0-5-1.326016-5-2.597899-4.473168-3.535534-3.535534-4.473168-2.597899-5-1.326016-5 0-5 1.326016-4.473168 2.597899-3.535534 3.535534-2.597899 4.473168-1.326016 5 0 5z" id="m082413cdb9" style="stroke:#000"/></defs><g clip-path="url(#p2bce433323)"><use style="fill:red;stroke:#000" x="288.824836" xlink:href="#m082413cdb9" y="74.678439"/><use style="fill:red;stroke:#000" x="276.283032" xlink:href="#m082413cdb9" y="112.164412"/><use style="fill:red;stroke:#000" x="373.581818" xlink:href="#m082413cdb9" y="130.346053"/><use style="fill:red;stroke:#000" x="258.455859" xlink:href="#m082413cdb9" y="102.274933"/><use style="fill:red;stroke:#000" x="323.638351" xlink:href="#m082413cdb9" y="91.258631"/><use style="fill:red;stroke:#000" x="290.933531" xlink:href="#m082413cdb9" y="73.442588"/><use style="fill:red;stroke:#000" x="345.665631" xlink:href="#m082413cdb9" y="122.898833"/><use style="fill:red;stroke:#000" x="359.205237" xlink:href="#m082413cdb9" y="89.57093"/><use style="fill:red;stroke:#000" x="251.592222" xlink:href="#m082413cdb9" y="89.387979"/><use style="fill:red;stroke:#000" x="369.330137" xlink:href="#m082413cdb9" y="94.752729"/></g></g><g id="line2d_3"><path clip-path="url(#p2bce433323)" d="M130.987983 63.823316 136.377707 90.954866 141.767431 118.086417 147.157154 145.217968 152.546878 172.349519 157.936602 199.48107 163.326326 226.61262" style="fill:none;stroke:#000;stroke-dasharray:5.55,2.4;stroke-dashoffset:0;stroke-width:1.5"/></g><g id="line2d_4"><path clip-path="url(#p2bce433323)" d="M238.78246 44.443636 244.172184 71.575187 249.561908 98.706738 254.951632 125.838289 260.341356 152.96984 265.73108 180.10139 271.120803 207.232941 276.510527 234.364492" style="fill:none;stroke:#000;stroke-dasharray:5.55,2.4;stroke-dashoffset:0;stroke-width:1.5"/></g><g id="line2d_5"><path clip-path="url(#p2bce433323)" d="M184.885222 52.195508 190.274945 79.327059 195.664669 106.45861 201.054393 133.59016 206.444117 160.721711 211.833841 187.853262 217.223565 214.984813 222.613289 242.116364" style="fill:none;stroke:#000;stroke-linecap:square;stroke-width:1.5"/></g><g id="patch_3"><path d="M54 252V34.56" style="fill:none;stroke:#000;stroke-linecap:square;stroke-linejoin:miter;stroke-width:.8"/></g><g id="patch_4"><path d="M388.8 252V34.56" style="fill:none;stroke:#000;stroke-linecap:square;stroke-linejoin:miter;stroke-width:.8"/></g><g id="patch_5"><path d="M54 252H388.8" style="fill:none;stroke:#000;stroke-linecap:square;stroke-linejoin:miter;stroke-width:.8"/></g><g id="patch_6"><path d="M54 34.56H388.8" style="fill:none;stroke:#000;stroke-linecap:square;stroke-linejoin:miter;stroke-width:.8"/></g><g id="text_1"><defs><path d="M3.515625 54.6875h17L29.6875 17l9.234375 37.6875h14.59375l9.1875-37.296875L71.921875 54.6875h17L74.515625.0H55.421875L46.1875 37.59375 37.015625.0H17.921875z" id="DejaVuSans-Bold-77"/><path d="M5.90625 72.90625H67.578125l-1.5625-8.3125H39.984375L27.484375.0h-9.90625l12.5 64.59375H4.296875z" id="DejaVuSans-Oblique-54"/><path d="M22.21875 27.984375 2.484375 54.6875H21L32.171875 38.484375 43.5 54.6875H62.015625L42.28125 28.078125 62.984375.0h-18.5l-12.3125 17.28125L20.015625.0h-18.5z" id="DejaVuSans-Bold-78"/><path d="M46 62.703125V35.5H73.1875V27.203125H46V0H37.796875V27.203125H10.59375V35.5H37.796875V62.703125z" id="DejaVuSans-2b"/><path d="M49.515625 33.40625q0 7.078125-3.25 11.078125-3.25 4-8.953125 4-4.15625.0-7.796875-2.03125Q25.875 44.4375 23.1875 40.578125q-2.828125-4.046875-4.46875-9.40625-1.625-5.34375-1.625-10.65625.0-6.75 3.1875-10.578125 3.203125-3.828125 8.828125-3.828125 4.234375.0 7.84375 1.96875 3.625 1.984375 6.359375 5.84375 2.78125 4 4.484375 9.3125 1.71875 5.328125 1.71875 10.171875zm-27.9375 12.984375Q24.90625 50.875 29.90625 53.4375 34.90625 56 40.375 56q8.40625.0 13.359375-5.671875 4.953125-5.65625 4.953125-15.3125.0-7.921875-2.90625-15.34375Q52.875 12.25 47.515625 6.5 44 2.6875 39.40625.625q-4.59375-2.046875-9.625-2.046875-5.3125.0-9.21875 2.4375-3.90625 2.453125-6.359375 7.28125L12.59375.0H3.609375L18.40625 75.984375h8.984375z" id="DejaVuSans-Oblique-62"/><path d="M10.59375 45.40625H73.1875V37.203125H10.59375zm0-19.921875H73.1875V17.1875H10.59375z" id="DejaVuSans-3d"/><path d="M10.59375 35.5H73.1875V27.203125H10.59375z" id="DejaVuSans-2212"/><path d="M12.40625 8.296875H28.515625v55.625L10.984375 60.40625v8.984375l17.4375 3.515625H38.28125V8.296875H54.390625V0H12.40625z" id="DejaVuSans-31"/></defs><g transform="translate(125.598259 238.240428)scale(0.1 -0.1)"><use transform="translate(0 0.684375)" xlink:href="#DejaVuSans-Bold-77"/><use transform="translate(93.339844 38.965625)scale(0.7)" xlink:href="#DejaVuSans-Oblique-54"/><use transform="translate(138.833008 0.684375)" xlink:href="#DejaVuSans-Bold-78"/><use transform="translate(222.817383 0.684375)" xlink:href="#DejaVuSans-2b"/><use transform="translate(326.088867 0.684375)" xlink:href="#DejaVuSans-Oblique-62"/><use transform="translate(409.047852 0.684375)" xlink:href="#DejaVuSans-3d"/><use transform="translate(531.801758 0.684375)" xlink:href="#DejaVuSans-2212"/><use transform="translate(635.073242 0.684375)" xlink:href="#DejaVuSans-31"/></g></g><g id="text_2"><g transform="translate(281.900251 230.488556)scale(0.1 -0.1)"><use transform="translate(0 0.684375)" xlink:href="#DejaVuSans-Bold-77"/><use transform="translate(93.339844 38.965625)scale(0.7)" xlink:href="#DejaVuSans-Oblique-54"/><use transform="translate(138.833008 0.684375)" xlink:href="#DejaVuSans-Bold-78"/><use transform="translate(222.817383 0.684375)" xlink:href="#DejaVuSans-2b"/><use transform="translate(326.088867 0.684375)" xlink:href="#DejaVuSans-Oblique-62"/><use transform="translate(409.047852 0.684375)" xlink:href="#DejaVuSans-3d"/><use transform="translate(512.319336 0.684375)" xlink:href="#DejaVuSans-31"/></g></g><g id="text_3"><defs><path d="M31.78125 66.40625q-7.609375.0-11.453125-7.5Q16.5 51.421875 16.5 36.375q0-14.984375 3.828125-22.484375 3.84375-7.5 11.453125-7.5 7.671875.0 11.5 7.5 3.84375 7.5 3.84375 22.484375.0 15.046875-3.84375 22.53125-3.828125 7.5-11.5 7.5zm0 7.8125q12.265625.0 18.734375-9.703125 6.46875-9.6875 6.46875-28.140625.0-18.40625-6.46875-28.109375-6.46875-9.6875-18.734375-9.6875-12.25.0-18.71875 9.6875Q6.59375 17.96875 6.59375 36.375q0 18.453125 6.46875 28.140625 6.46875 9.703125 18.71875 9.703125z" id="DejaVuSans-30"/></defs><g transform="translate(228.003013 245.992299)scale(0.1 -0.1)"><use transform="translate(0 0.684375)" xlink:href="#DejaVuSans-Bold-77"/><use transform="translate(93.339844 38.965625)scale(0.7)" xlink:href="#DejaVuSans-Oblique-54"/><use transform="translate(138.833008 0.684375)" xlink:href="#DejaVuSans-Bold-78"/><use transform="translate(222.817383 0.684375)" xlink:href="#DejaVuSans-2b"/><use transform="translate(326.088867 0.684375)" xlink:href="#DejaVuSans-Oblique-62"/><use transform="translate(409.047852 0.684375)" xlink:href="#DejaVuSans-3d"/><use transform="translate(512.319336 0.684375)" xlink:href="#DejaVuSans-30"/></g></g><g id="patch_7"><path d="M268.058718 196.04465Q215.336589 206.28151 162.614459 216.51837" style="fill:none;stroke:#000;stroke-linecap:round"/><path d="M263.750839 194.843743 268.058718 196.04465 264.513266 198.770409" style="fill:none;stroke:#000;stroke-linecap:round"/><path d="M166.922339 217.719277 162.614459 216.51837 166.159912 213.792611" style="fill:none;stroke:#000;stroke-linecap:round"/></g><g id="patch_8"><path d="M260.666854 163.076309Q235.08942 167.816243 209.511986 172.556178" style="fill:none;stroke:red;stroke-linecap:round"/><path d="M256.369389 161.83865 260.666854 163.076309 257.098248 165.771685" style="fill:none;stroke:red;stroke-linecap:round"/><path d="M213.80945 173.793837 209.511986 172.556178 213.080592 169.860802" style="fill:none;stroke:red;stroke-linecap:round"/></g><g id="text_4"><defs><path d="M52 44.1875q3.375 6.0625 8.0625 8.9375Q64.75 56 71.09375 56q8.546875.0 13.1875-5.984375 4.640625-5.96875 4.640625-17V0h-9.03125V32.71875q0 7.859375-2.796875 11.65625-2.78125 3.8125-8.484375 3.8125-6.984375.0-11.046875-4.640625-4.046875-4.625-4.046875-12.640625V0h-9.03125V32.71875q0 7.90625-2.78125 11.6875-2.78125 3.78125-8.59375 3.78125-6.890625.0-10.953125-4.65625-4.046875-4.65625-4.046875-12.625V0H9.078125V54.6875h9.03125v-8.5q3.078125 5.03125 7.375 7.421875Q29.78125 56 35.6875 56q5.96875.0 10.140625-3.03125Q50 49.953125 52 44.1875z" id="DejaVuSans-6d"/><path d="M34.28125 27.484375Q23.390625 27.484375 19.1875 25q-4.203125-2.484375-4.203125-8.5.0-4.78125 3.15625-7.59375 3.15625-2.796875 8.5625-2.796875 7.484375.0 12 5.296875 4.515625 5.296875 4.515625 14.078125v2zm17.921875 3.71875V0H43.21875V8.296875q-3.078125-4.96875-7.671875-7.34375-4.59375-2.375-11.234375-2.375-8.390625.0-13.359375 4.71875Q6 8.015625 6 15.921875q0 9.21875 6.171875 13.90625 6.1875 4.6875 18.4375 4.6875H43.21875v.890625q0 6.203125-4.078125 9.59375Q35.0625 48.390625 27.6875 48.390625q-4.6875.0-9.140625-1.125-4.4375-1.125-8.53125-3.375v8.3125q4.921875 1.90625 9.5625 2.84375Q24.21875 56 28.609375 56q11.875.0 17.734375-6.15625 5.859375-6.140625 5.859375-18.640625z" id="DejaVuSans-61"/><path d="M41.109375 46.296875q-1.515625.875-3.296875 1.28125Q36.03125 48 33.890625 48q-7.625.0-11.703125-4.953125Q18.109375 38.09375 18.109375 28.8125V0H9.078125V54.6875h9.03125v-8.5q2.84375 4.984375 7.375 7.390625Q30.03125 56 36.53125 56q.921875.0 2.046875-.125 1.125-.109375 2.484375-.359375z" id="DejaVuSans-72"/><path d="M45.40625 27.984375q0 9.765625-4.03125 15.125-4.015625 5.375-11.296875 5.375-7.21875.0-11.25-5.375-4.03125-5.359375-4.03125-15.125.0-9.71875 4.03125-15.09375 4.03125-5.375 11.25-5.375 7.28125.0 11.296875 5.375 4.03125 5.375 4.03125 15.09375zM54.390625 6.78125q0-13.953125-6.203125-20.765625-6.1875-6.8125-18.984375-6.8125-4.734375.0-8.9375.703125-4.203125.703125-8.15625 2.171875V-9.1875q3.953125-2.140625 7.8125-3.15625Q23.78125-13.375 27.78125-13.375q8.84375.0 13.234375 4.609375Q45.40625-4.15625 45.40625 5.171875V9.625q-2.78125-4.84375-7.125-7.234375Q33.9375.0 27.875.0 17.828125.0 11.671875 7.65625q-6.15625 7.671875-6.15625 20.328125.0 12.6875 6.15625 20.34375Q17.828125 56 27.875 56q6.0625.0 10.40625-2.390625 4.34375-2.390625 7.125-7.21875V54.6875h8.984375z" id="DejaVuSans-67"/><path d="M9.421875 54.6875H18.40625V0H9.421875zm0 21.296875H18.40625V64.59375H9.421875z" id="DejaVuSans-69"/><path d="M54.890625 33.015625V0H45.90625V32.71875q0 7.765625-3.03125 11.609375Q39.84375 48.1875 33.796875 48.1875q-7.28125.0-11.484375-4.640625-4.203125-4.625-4.203125-12.640625V0H9.078125V54.6875h9.03125v-8.5q3.234375 4.9375 7.59375 7.375Q30.078125 56 35.796875 56q9.421875.0 14.25-5.828125 4.84375-5.828125 4.84375-17.15625z" id="DejaVuSans-6e"/></defs><g transform="translate(265.73108 161.613176)scale(0.1 -0.1)"><use xlink:href="#DejaVuSans-6d"/><use x="97.412109" xlink:href="#DejaVuSans-61"/><use x="158.691406" xlink:href="#DejaVuSans-72"/><use x="199.789062" xlink:href="#DejaVuSans-67"/><use x="263.265625" xlink:href="#DejaVuSans-69"/><use x="291.048828" xlink:href="#DejaVuSans-6e"/></g></g></g></g><defs><clipPath id="p2bce433323"><path d="M54 34.56h334.8V252H54z"/></clipPath></defs></svg>