<svg height="288pt" viewBox="0 0 432 288" width="432pt" xmlns="http://www.w3.org/2000/svg" xmlns:xlink="http://www.w3.org/1999/xlink"><defs><style>*{stroke-linecap:butt;stroke-linejoin:round}</style></defs><g id="figure_1"><g id="patch_1"><path d="M0 288H432V0H0z" style="fill:#fff"/></g><g id="axes_1"><g id="patch_2"><path d="M54 252H388.8V34.56H54z" style="fill:#fff"/></g><g id="matplotlib.axis_1"><g id="xtick_1"><g id="line2d_1"><path clip-path="url(#p5020662d46)" d="M69.218182 252V34.56" style="fill:none;stroke:#b0b0b0;stroke-linecap:square;stroke-width:.8"/></g><g id="line2d_2"><defs><path d="M0 0V3.5" id="me87668423f" style="stroke:#000;stroke-width:.8"/></defs><use style="stroke:#000;stroke-width:.8" x="69.218182" xlink:href="#me87668423f" y="252"/></g><g id="text_1"><defs><path d="M10.59375 35.5H73.1875V27.203125H10.59375z" id="DejaVuSans-2212"/><path d="M33.015625 40.375q-6.640625.0-10.53125-4.546875-3.875-4.53125-3.875-12.4375.0-7.859375 3.875-12.4375 3.890625-4.5625 10.53125-4.5625 6.640625.0 10.515625 4.5625 3.875 4.578125 3.875 12.4375.0 7.90625-3.875 12.4375Q39.65625 40.375 33.015625 40.375zM52.59375 71.296875V62.3125q-3.71875 1.75-7.5 2.671875-3.78125.9375-7.5.9375-9.765625.0-14.921875-6.59375-5.140625-6.59375-5.875-19.921875 2.875 4.25 7.21875 6.515625Q28.375 48.1875 33.59375 48.1875q10.984375.0 17.359375-6.671875 6.375-6.65625 6.375-18.125.0-11.234375-6.640625-18.03125-6.640625-6.78125-17.671875-6.78125-12.65625.0-19.34375 9.6875-6.6875 9.703125-6.6875 28.109375.0 17.28125 8.203125 27.5625 8.203125 10.28125 22.015625 10.28125 3.71875.0 7.5-.734375 3.78125-.734375 7.890625-2.1875z" id="DejaVuSans-36"/></defs><g transform="translate(61.847088 266.598437)scale(0.1 -0.1)"><use xlink:href="#DejaVuSans-2212"/><use x="83.789062" xlink:href="#DejaVuSans-36"/></g></g></g><g id="xtick_2"><g id="line2d_3"><path clip-path="url(#p5020662d46)" d="M122.150988 252V34.56" style="fill:none;stroke:#b0b0b0;stroke-linecap:square;stroke-width:.8"/></g><g id="line2d_4"><use style="stroke:#000;stroke-width:.8" x="122.150988" xlink:href="#me87668423f" y="252"/></g><g id="text_2"><defs><path d="M37.796875 64.3125 12.890625 25.390625h24.90625zm-2.59375 8.59375h12.40625V25.390625h10.40625V17.1875H47.609375V0h-9.8125V17.1875H4.890625v9.515625z" id="DejaVuSans-34"/></defs><g transform="translate(114.779894 266.598437)scale(0.1 -0.1)"><use xlink:href="#DejaVuSans-2212"/><use x="83.789062" xlink:href="#DejaVuSans-34"/></g></g></g><g id="xtick_3"><g id="line2d_5"><path clip-path="url(#p5020662d46)" d="M175.083794 252V34.56" style="fill:none;stroke:#b0b0b0;stroke-linecap:square;stroke-width:.8"/></g><g id="line2d_6"><use style="stroke:#000;stroke-width:.8" x="175.083794" xlink:href="#me87668423f" y="252"/></g><g id="text_3"><defs><path d="M19.1875 8.296875H53.609375V0H7.328125V8.296875Q12.9375 14.109375 22.625 23.890625 32.328125 33.6875 34.8125 36.53125q4.734375 5.3125 6.609375 9 1.890625 3.6875 1.890625 7.25.0 5.8125-4.078125 9.46875-4.078125 3.671875-10.625 3.671875-4.640625.0-9.796875-1.609375-5.140625-1.609375-11-4.890625v9.96875Q13.765625 71.78125 18.9375 73q5.1875 1.21875 9.484375 1.21875 11.328125.0 18.0625-5.671875 6.734375-5.65625 6.734375-15.125.0-4.5-1.6875-8.53125-1.671875-4.015625-6.125-9.484375-1.21875-1.421875-7.765625-8.1875Q31.109375 20.453125 19.1875 8.296875z" id="DejaVuSans-32"/></defs><g transform="translate(167.712701 266.598437)scale(0.1 -0.1)"><use xlink:href="#DejaVuSans-2212"/><use x="83.789062" xlink:href="#DejaVuSans-32"/></g></g></g><g id="xtick_4"><g id="line2d_7"><path clip-path="url(#p5020662d46)" d="M228.016601 252V34.56" style="fill:none;stroke:#b0b0b0;stroke-linecap:square;stroke-width:.8"/></g><g id="line2d_8"><use style="stroke:#000;stroke-width:.8" x="228.016601" xlink:href="#me87668423f" y="252"/></g><g id="text_4"><defs><path d="M31.78125 66.40625q-7.609375.0-11.453125-7.5Q16.5 51.421875 16.5 36.375q0-14.984375 3.828125-22.484375 3.84375-7.5 11.453125-7.5 7.671875.0 11.5 7.5 3.84375 7.5 3.84375 22.484375.0 15.046875-3.84375 22.53125-3.828125 7.5-11.5 7.5zm0 7.8125q12.265625.0 18.734375-9.703125 6.46875-9.6875 6.46875-28.140625.0-18.40625-6.46875-28.109375-6.46875-9.6875-18.734375-9.6875-12.25.0-18.71875 9.6875Q6.59375 17.96875 6.59375 36.375q0 18.453125 6.46875 28.140625 6.46875 9.703125 18.71875 9.703125z" id="DejaVuSans-30"/></defs><g transform="translate(224.835351 266.598437)scale(0.1 -0.1)"><use xlink:href="#DejaVuSans-30"/></g></g></g><g id="xtick_5"><g id="line2d_9"><path clip-path="url(#p5020662d46)" d="M280.949407 252V34.56" style="fill:none;stroke:#b0b0b0;stroke-linecap:square;stroke-width:.8"/></g><g id="line2d_10"><use style="stroke:#000;stroke-width:.8" x="280.949407" xlink:href="#me87668423f" y="252"/></g><g id="text_5"><g transform="translate(277.768157 266.598437)scale(0.1 -0.1)"><use xlink:href="#DejaVuSans-32"/></g></g></g><g id="xtick_6"><g id="line2d_11"><path clip-path="url(#p5020662d46)" d="M333.882213 252V34.56" style="fill:none;stroke:#b0b0b0;stroke-linecap:square;stroke-width:.8"/></g><g id="line2d_12"><use style="stroke:#000;stroke-width:.8" x="333.882213" xlink:href="#me87668423f" y="252"/></g><g id="text_6"><g transform="translate(330.700963 266.598437)scale(0.1 -0.1)"><use xlink:href="#DejaVuSans-34"/></g></g></g><g id="xtick_7"><g id="line2d_13"><path clip-path="url(#p5020662d46)" d="M386.81502 252V34.56" style="fill:none;stroke:#b0b0b0;stroke-linecap:square;stroke-width:.8"/></g><g id="line2d_14"><use style="stroke:#000;stroke-width:.8" x="386.81502" xlink:href="#me87668423f" y="252"/></g><g id="text_7"><g transform="translate(383.63377 266.598437)scale(0.1 -0.1)"><use xlink:href="#DejaVuSans-36"/></g></g></g><g id="text_8"><defs><path d="M5.515625 54.6875H48.1875V46.484375L14.40625 7.171875H48.1875V0H4.296875V8.203125l33.796875 39.3125H5.515625z" id="DejaVuSans-7a"/></defs><g transform="translate(218.775781 280.276563)scale(0.1 -0.1)"><use xlink:href="#DejaVuSans-7a"/></g></g></g><g id="matplotlib.axis_2"><g id="ytick_1"><g id="line2d_15"><path clip-path="url(#p5020662d46)" d="M54 242.608353H388.8" style="fill:none;stroke:#b0b0b0;stroke-linecap:square;stroke-width:.8"/></g><g id="line2d_16"><defs><path d="M0 0H-3.5" id="m622938fdc9" style="stroke:#000;stroke-width:.8"/></defs><use style="stroke:#000;stroke-width:.8" x="54" xlink:href="#m622938fdc9" y="242.608353"/></g><g id="text_9"><defs><path d="M10.6875 12.40625H21V0H10.6875z" id="DejaVuSans-2e"/></defs><g transform="translate(31.096875 246.407572)scale(0.1 -0.1)"><use xlink:href="#DejaVuSans-30"/><use x="63.623047" xlink:href="#DejaVuSans-2e"/><use x="95.410156" xlink:href="#DejaVuSans-30"/></g></g></g><g id="ytick_2"><g id="line2d_17"><path clip-path="url(#p5020662d46)" d="M54 202.813439H388.8" style="fill:none;stroke:#b0b0b0;stroke-linecap:square;stroke-width:.8"/></g><g id="line2d_18"><use style="stroke:#000;stroke-width:.8" x="54" xlink:href="#m622938fdc9" y="202.813439"/></g><g id="text_10"><g transform="translate(31.096875 206.612657)scale(0.1 -0.1)"><use xlink:href="#DejaVuSans-30"/><use x="63.623047" xlink:href="#DejaVuSans-2e"/><use x="95.410156" xlink:href="#DejaVuSans-32"/></g></g></g><g id="ytick_3"><g id="line2d_19"><path clip-path="url(#p5020662d46)" d="M54 163.018525H388.8" style="fill:none;stroke:#b0b0b0;stroke-linecap:square;stroke-width:.8"/></g><g id="line2d_20"><use style="stroke:#000;stroke-width:.8" x="54" xlink:href="#m622938fdc9" y="163.018525"/></g><g id="text_11"><g transform="translate(31.096875 166.817743)scale(0.1 -0.1)"><use xlink:href="#DejaVuSans-30"/><use x="63.623047" xlink:href="#DejaVuSans-2e"/><use x="95.410156" xlink:href="#DejaVuSans-34"/></g></g></g><g id="ytick_4"><g id="line2d_21"><path clip-path="url(#p5020662d46)" d="M54 123.223611H388.8" style="fill:none;stroke:#b0b0b0;stroke-linecap:square;stroke-width:.8"/></g><g id="line2d_22"><use style="stroke:#000;stroke-width:.8" x="54" xlink:href="#m622938fdc9" y="123.223611"/></g><g id="text_12"><g transform="translate(31.096875 127.022829)scale(0.1 -0.1)"><use xlink:href="#DejaVuSans-30"/><use x="63.623047" xlink:href="#DejaVuSans-2e"/><use x="95.410156" xlink:href="#DejaVuSans-36"/></g></g></g><g id="ytick_5"><g id="line2d_23"><path clip-path="url(#p5020662d46)" d="M54 83.428697H388.8" style="fill:none;stroke:#b0b0b0;stroke-linecap:square;stroke-width:.8"/></g><g id="line2d_24"><use style="stroke:#000;stroke-width:.8" x="54" xlink:href="#m622938fdc9" y="83.428697"/></g><g id="text_13"><defs><path d="M31.78125 34.625q-7.03125.0-11.0625-3.765625-4.015625-3.765625-4.015625-10.34375.0-6.59375 4.015625-10.359375Q24.75 6.390625 31.78125 6.390625q7.03125.0 11.078125 3.78125 4.0625 3.796875 4.0625 10.34375.0 6.578125-4.03125 10.34375Q38.875 34.625 31.78125 34.625zm-9.859375 4.1875q-6.34375 1.5625-9.890625 5.90625Q8.5 49.078125 8.5 55.328125q0 8.734375 6.21875 13.8125 6.234375 5.078125 17.0625 5.078125 10.890625.0 17.09375-5.078125 6.203125-5.078125 6.203125-13.8125.0-6.25-3.546875-10.609375Q48 40.375 41.703125 38.8125q7.125-1.65625 11.09375-6.5 3.984375-4.828125 3.984375-11.796875.0-10.609375-6.46875-16.28125-6.46875-5.65625-18.53125-5.65625-12.046875.0-18.53125 5.65625Q6.78125 9.90625 6.78125 20.515625q0 6.96875 4 11.796875 4.015625 4.84375 11.140625 6.5zM18.3125 54.390625q0-5.65625 3.53125-8.828125 3.546875-3.171875 9.9375-3.171875 6.359375.0 9.9375 3.171875 3.59375 3.171875 3.59375 8.828125.0 5.671875-3.59375 8.84375-3.578125 3.171875-9.9375 3.171875-6.390625.0-9.9375-3.171875-3.53125-3.171875-3.53125-8.84375z" id="DejaVuSans-38"/></defs><g transform="translate(31.096875 87.227915)scale(0.1 -0.1)"><use xlink:href="#DejaVuSans-30"/><use x="63.623047" xlink:href="#DejaVuSans-2e"/><use x="95.410156" xlink:href="#DejaVuSans-38"/></g></g></g><g id="ytick_6"><g id="line2d_25"><path clip-path="url(#p5020662d46)" d="M54 43.633782H388.8" style="fill:none;stroke:#b0b0b0;stroke-linecap:square;stroke-width:.8"/></g><g id="line2d_26"><use style="stroke:#000;stroke-width:.8" x="54" xlink:href="#m622938fdc9" y="43.633782"/></g><g id="text_14"><defs><path d="M12.40625 8.296875H28.515625v55.625L10.984375 60.40625v8.984375l17.4375 3.515625H38.28125V8.296875H54.390625V0H12.40625z" id="DejaVuSans-31"/></defs><g transform="translate(31.096875 47.433001)scale(0.1 -0.1)"><use xlink:href="#DejaVuSans-31"/><use x="63.623047" xlink:href="#DejaVuSans-2e"/><use x="95.410156" xlink:href="#DejaVuSans-30"/></g></g></g><g id="text_15"><defs><path d="M34.671875 47.5625q-7.421875.0-12.453125-5.375-5.328125-5.609375-7.078125-14.890625Q13.1875 17.484375 16.3125 11.8125q3.078125-5.609375 10.34375-5.609375 7.1875.0 12.453125 5.65625 5.328125 5.671875 7.234375 15.4375 1.703125 8.9375-1.328125 14.890625-2.828125 5.375-10.34375 5.375zm1.40625 7.171875 29.84375-.046875-1.765625-8.984375H54.109375q3.796875-7.609375 1.75-18.40625Q53.21875 13.875 45.0625 6.25 36.859375-1.421875 25.140625-1.421875 13.375-1.421875 8.203125 6.25 3.03125 13.875 5.671875 27.296875 8.25 40.765625 16.40625 48.390625q6.78125 6.34375 19.671875 6.34375z" id="DejaVuSans-Oblique-3c3"/><path d="M31 75.875q-6.53125-11.21875-9.71875-22.21875-3.171875-10.984375-3.171875-22.265625.0-11.265625 3.203125-22.328125Q24.515625-2 31-13.1875H23.1875Q15.875-1.703125 12.234375 9.375 8.59375 20.453125 8.59375 31.390625q0 10.890625 3.609375 21.921875 3.625 11.046875 10.984375 22.5625z" id="DejaVuSans-28"/><path d="M11.625 54.6875H54.296875L52.6875 46.484375 11.53125 7.171875H45.515625L44.09375.0H-.296875L1.3125 8.203125l41.171875 39.3125H10.203125z" id="DejaVuSans-Oblique-7a"/><path d="M8.015625 75.875h7.8125q7.3125-11.515625 10.953125-22.5625 3.640625-11.03125 3.640625-21.921875.0-10.9375-3.640625-22.015625Q23.140625-1.703125 15.828125-13.1875h-7.8125Q14.5-2 17.703125 9.0625 20.90625 20.125 20.90625 31.390625q0 11.28125-3.203125 22.265625-3.203125 11-9.6875 22.21875z" id="DejaVuSans-29"/></defs><g transform="translate(25.017187 152.98)rotate(-90)scale(0.1 -0.1)"><use transform="translate(0 0.125)" xlink:href="#DejaVuSans-Oblique-3c3"/><use transform="translate(63.378906 0.125)" xlink:href="#DejaVuSans-28"/><use transform="translate(102.392578 0.125)" xlink:href="#DejaVuSans-Oblique-7a"/><use transform="translate(154.882812 0.125)" xlink:href="#DejaVuSans-29"/></g></g></g><g id="line2d_27"><path clip-path="url(#p5020662d46)" d="M69.218182 242.116364 82.451383 241.798499 95.684585 241.276646 108.917787 240.422231 122.150988 239.029554 135.38419 236.775964 148.617391 233.17181 161.850593 227.514504 175.083794 218.890003 188.316996 206.310313 201.550198 189.095849 214.783399 167.48736 228.016601 143.121068 241.249802 118.754775 254.483004 97.146286 267.716206 79.931823 280.949407 67.352133 294.182609 58.727631 307.41581 53.070325 320.649012 49.466171 333.882213 47.212581 347.115415 45.819905 360.348617 44.96549 373.581818 44.443636" style="fill:none;stroke:#1f77b4;stroke-linecap:square;stroke-width:1.5"/></g><g id="patch_3"><path d="M54 252V34.56" style="fill:none;stroke:#000;stroke-linecap:square;stroke-linejoin:miter;stroke-width:.8"/></g><g id="patch_4"><path d="M388.8 252V34.56" style="fill:none;stroke:#000;stroke-linecap:square;stroke-linejoin:miter;stroke-width:.8"/></g><g id="patch_5"><path d="M54 252H388.8" style="fill:none;stroke:#000;stroke-linecap:square;stroke-linejoin:miter;stroke-width:.8"/></g><g id="patch_6"><path d="M54 34.56H388.8" style="fill:none;stroke:#000;stroke-linecap:square;stroke-linejoin:miter;stroke-width:.8"/></g></g></g><defs><clipPath id="p5020662d46"><path d="M54 34.56h334.8V252H54z"/></clipPath></defs></svg>